<mxfile host="app.diagrams.net" modified="2024-04-22T20:50:26.583Z" agent="Mozilla/5.0 (Macintosh; Intel Mac OS X 10_15_7) AppleWebKit/537.36 (KHTML, like Gecko) Chrome/124.0.0.0 Safari/537.36" etag="U5SL_xEp6HHvc0B3--bE" version="24.2.7" type="github">
  <diagram name="Page-1" id="oKNtOXBgdQXpYnNIQFLr">
    <mxGraphModel dx="710" dy="449" grid="0" gridSize="10" guides="1" tooltips="1" connect="1" arrows="1" fold="1" page="0" pageScale="1" pageWidth="1100" pageHeight="850" math="0" shadow="0">
      <root>
        <mxCell id="0" />
        <mxCell id="1" parent="0" />
        <mxCell id="tWb0JiMxleNKAtwDJ_G4-9" value="" style="endArrow=classic;html=1;rounded=0;exitX=0.5;exitY=0;exitDx=0;exitDy=0;fillColor=#dae8fc;strokeColor=#6c8ebf;fontColor=#7EA6E0;" parent="1" source="STHjDq64EF-UmRLRF9ZD-22" target="STHjDq64EF-UmRLRF9ZD-20" edge="1">
          <mxGeometry width="50" height="50" relative="1" as="geometry">
            <mxPoint x="342" y="386" as="sourcePoint" />
            <mxPoint x="392" y="336" as="targetPoint" />
          </mxGeometry>
        </mxCell>
        <mxCell id="STHjDq64EF-UmRLRF9ZD-4" style="rounded=0;orthogonalLoop=1;jettySize=auto;html=1;fontFamily=Comic Sans MS;fillColor=#dae8fc;strokeColor=#6c8ebf;fontColor=#7EA6E0;" parent="1" source="STHjDq64EF-UmRLRF9ZD-1" target="STHjDq64EF-UmRLRF9ZD-20" edge="1">
          <mxGeometry relative="1" as="geometry">
            <mxPoint x="261.95700256831424" y="196.62991388432647" as="targetPoint" />
          </mxGeometry>
        </mxCell>
        <mxCell id="tWb0JiMxleNKAtwDJ_G4-1" value="Mindless trial" style="edgeLabel;html=1;align=center;verticalAlign=middle;resizable=0;points=[];fontFamily=Comic Sans MS;fontColor=#7EA6E0;fontSize=14;" parent="STHjDq64EF-UmRLRF9ZD-4" vertex="1" connectable="0">
          <mxGeometry x="-0.2969" y="-3" relative="1" as="geometry">
            <mxPoint x="-10" y="6" as="offset" />
          </mxGeometry>
        </mxCell>
        <mxCell id="STHjDq64EF-UmRLRF9ZD-5" style="rounded=0;orthogonalLoop=1;jettySize=auto;html=1;fillColor=#e1d5e7;strokeColor=#9673a6;fontFamily=Comic Sans MS;fontColor=#A680B8;" parent="1" source="STHjDq64EF-UmRLRF9ZD-1" target="STHjDq64EF-UmRLRF9ZD-13" edge="1">
          <mxGeometry relative="1" as="geometry" />
        </mxCell>
        <mxCell id="tWb0JiMxleNKAtwDJ_G4-2" value="Key observation 1" style="edgeLabel;html=1;align=center;verticalAlign=middle;resizable=0;points=[];fontFamily=Comic Sans MS;fontColor=#A680B8;fontSize=14;" parent="STHjDq64EF-UmRLRF9ZD-5" vertex="1" connectable="0">
          <mxGeometry x="-0.0432" y="2" relative="1" as="geometry">
            <mxPoint x="-1" y="-4" as="offset" />
          </mxGeometry>
        </mxCell>
        <mxCell id="STHjDq64EF-UmRLRF9ZD-1" value="&lt;font style=&quot;font-size: 14px;&quot;&gt;theorem&lt;/font&gt;" style="ellipse;whiteSpace=wrap;html=1;fontFamily=Comic Sans MS;fontSize=14;" parent="1" vertex="1">
          <mxGeometry x="331.5" y="109" width="71" height="42" as="geometry" />
        </mxCell>
        <mxCell id="STHjDq64EF-UmRLRF9ZD-11" style="rounded=0;orthogonalLoop=1;jettySize=auto;html=1;fillColor=#e1d5e7;strokeColor=#9673a6;fontFamily=Comic Sans MS;fontColor=#A680B8;" parent="1" source="STHjDq64EF-UmRLRF9ZD-13" target="STHjDq64EF-UmRLRF9ZD-14" edge="1">
          <mxGeometry relative="1" as="geometry">
            <mxPoint x="419.99750490563076" y="284.19874264155396" as="targetPoint" />
          </mxGeometry>
        </mxCell>
        <mxCell id="tWb0JiMxleNKAtwDJ_G4-3" value="Key observation 2" style="edgeLabel;html=1;align=center;verticalAlign=middle;resizable=0;points=[];fontFamily=Comic Sans MS;fontColor=#A680B8;fontSize=14;" parent="STHjDq64EF-UmRLRF9ZD-11" vertex="1" connectable="0">
          <mxGeometry x="-0.274" y="2" relative="1" as="geometry">
            <mxPoint x="-17" y="1" as="offset" />
          </mxGeometry>
        </mxCell>
        <mxCell id="STHjDq64EF-UmRLRF9ZD-12" style="rounded=0;orthogonalLoop=1;jettySize=auto;html=1;fontFamily=Comic Sans MS;" parent="1" source="STHjDq64EF-UmRLRF9ZD-13" target="STHjDq64EF-UmRLRF9ZD-15" edge="1">
          <mxGeometry relative="1" as="geometry" />
        </mxCell>
        <mxCell id="STHjDq64EF-UmRLRF9ZD-13" value="" style="ellipse;whiteSpace=wrap;html=1;aspect=fixed;fontFamily=Comic Sans MS;fillColor=#e1d5e7;strokeColor=#9673a6;fontColor=#A680B8;" parent="1" vertex="1">
          <mxGeometry x="465" y="197" width="50" height="50" as="geometry" />
        </mxCell>
        <mxCell id="STHjDq64EF-UmRLRF9ZD-14" value="" style="ellipse;whiteSpace=wrap;html=1;aspect=fixed;fontFamily=Comic Sans MS;fillColor=#e1d5e7;strokeColor=#9673a6;" parent="1" vertex="1">
          <mxGeometry x="410" y="280" width="50" height="50" as="geometry" />
        </mxCell>
        <mxCell id="STHjDq64EF-UmRLRF9ZD-15" value="" style="ellipse;whiteSpace=wrap;html=1;aspect=fixed;fontFamily=Comic Sans MS;" parent="1" vertex="1">
          <mxGeometry x="520" y="280" width="50" height="50" as="geometry" />
        </mxCell>
        <mxCell id="STHjDq64EF-UmRLRF9ZD-17" value="..." style="text;html=1;align=center;verticalAlign=middle;resizable=0;points=[];autosize=1;strokeColor=none;fillColor=none;fontSize=32;fontFamily=Comic Sans MS;" parent="1" vertex="1">
          <mxGeometry x="469" y="276" width="42" height="50" as="geometry" />
        </mxCell>
        <mxCell id="STHjDq64EF-UmRLRF9ZD-18" value="" style="rounded=0;orthogonalLoop=1;jettySize=auto;html=1;fontFamily=Comic Sans MS;fillColor=#dae8fc;strokeColor=#6c8ebf;fontColor=#7EA6E0;" parent="1" source="STHjDq64EF-UmRLRF9ZD-20" target="STHjDq64EF-UmRLRF9ZD-21" edge="1">
          <mxGeometry relative="1" as="geometry">
            <mxPoint x="173.99750490563076" y="280.19874264155396" as="targetPoint" />
          </mxGeometry>
        </mxCell>
        <mxCell id="STHjDq64EF-UmRLRF9ZD-19" style="rounded=0;orthogonalLoop=1;jettySize=auto;html=1;fontFamily=Comic Sans MS;fillColor=#dae8fc;strokeColor=#6c8ebf;fontColor=#7EA6E0;" parent="1" source="STHjDq64EF-UmRLRF9ZD-20" target="STHjDq64EF-UmRLRF9ZD-22" edge="1">
          <mxGeometry relative="1" as="geometry" />
        </mxCell>
        <mxCell id="tWb0JiMxleNKAtwDJ_G4-11" value="&lt;span style=&quot;font-family: &amp;quot;Comic Sans MS&amp;quot;; font-size: 14px;&quot;&gt;back &amp;amp; forth&lt;/span&gt;" style="edgeLabel;html=1;align=center;verticalAlign=middle;resizable=0;points=[];fontColor=#7EA6E0;fontSize=14;" parent="STHjDq64EF-UmRLRF9ZD-19" vertex="1" connectable="0">
          <mxGeometry x="-0.0932" y="-1" relative="1" as="geometry">
            <mxPoint x="-14" y="1" as="offset" />
          </mxGeometry>
        </mxCell>
        <mxCell id="STHjDq64EF-UmRLRF9ZD-20" value="" style="ellipse;whiteSpace=wrap;html=1;aspect=fixed;fontFamily=Comic Sans MS;fillColor=#dae8fc;strokeColor=#6c8ebf;" parent="1" vertex="1">
          <mxGeometry x="219" y="193" width="50" height="50" as="geometry" />
        </mxCell>
        <mxCell id="tWb0JiMxleNKAtwDJ_G4-17" style="edgeStyle=orthogonalEdgeStyle;rounded=0;orthogonalLoop=1;jettySize=auto;html=1;fillColor=#dae8fc;strokeColor=#6c8ebf;" parent="1" source="STHjDq64EF-UmRLRF9ZD-21" target="tWb0JiMxleNKAtwDJ_G4-16" edge="1">
          <mxGeometry relative="1" as="geometry" />
        </mxCell>
        <mxCell id="STHjDq64EF-UmRLRF9ZD-22" value="" style="ellipse;whiteSpace=wrap;html=1;aspect=fixed;fontFamily=Comic Sans MS;fillColor=#dae8fc;strokeColor=#6c8ebf;" parent="1" vertex="1">
          <mxGeometry x="167" y="280" width="50" height="50" as="geometry" />
        </mxCell>
        <mxCell id="STHjDq64EF-UmRLRF9ZD-23" value="..." style="text;html=1;align=center;verticalAlign=middle;resizable=0;points=[];autosize=1;strokeColor=none;fillColor=none;fontSize=32;fontFamily=Comic Sans MS;fontColor=#7EA6E0;" parent="1" vertex="1">
          <mxGeometry x="223" y="272" width="42" height="50" as="geometry" />
        </mxCell>
        <mxCell id="STHjDq64EF-UmRLRF9ZD-24" value="..." style="text;html=1;align=center;verticalAlign=middle;resizable=0;points=[];autosize=1;strokeColor=none;fillColor=none;fontSize=32;fontFamily=Comic Sans MS;" parent="1" vertex="1">
          <mxGeometry x="346" y="197" width="42" height="50" as="geometry" />
        </mxCell>
        <mxCell id="tWb0JiMxleNKAtwDJ_G4-5" value="" style="endArrow=none;dashed=1;html=1;dashPattern=1 3;strokeWidth=2;rounded=0;fillColor=#e1d5e7;strokeColor=#9673a6;fontFamily=Comic Sans MS;fontColor=#67AB9F;" parent="1" edge="1">
          <mxGeometry width="50" height="50" relative="1" as="geometry">
            <mxPoint x="160" y="68" as="sourcePoint" />
            <mxPoint x="207" y="68" as="targetPoint" />
          </mxGeometry>
        </mxCell>
        <mxCell id="tWb0JiMxleNKAtwDJ_G4-6" value="&lt;font color=&quot;#a680b8&quot; style=&quot;font-size: 14px;&quot;&gt;DCSer: slower every step, more to the point&lt;/font&gt;" style="edgeLabel;html=1;align=center;verticalAlign=middle;resizable=0;points=[];fontColor=#97D077;fontStyle=1;fontFamily=Comic Sans MS;fontSize=14;" parent="tWb0JiMxleNKAtwDJ_G4-5" vertex="1" connectable="0">
          <mxGeometry x="0.1613" y="-1" relative="1" as="geometry">
            <mxPoint x="177" y="-2" as="offset" />
          </mxGeometry>
        </mxCell>
        <mxCell id="tWb0JiMxleNKAtwDJ_G4-7" value="" style="endArrow=none;dashed=1;html=1;dashPattern=1 3;strokeWidth=2;rounded=0;fillColor=#dae8fc;strokeColor=#6c8ebf;fontFamily=Comic Sans MS;fontColor=#67AB9F;" parent="1" edge="1">
          <mxGeometry width="50" height="50" relative="1" as="geometry">
            <mxPoint x="161" y="48" as="sourcePoint" />
            <mxPoint x="207" y="48" as="targetPoint" />
          </mxGeometry>
        </mxCell>
        <mxCell id="tWb0JiMxleNKAtwDJ_G4-8" value="BFSer: faster every step, need lots of backtracking" style="edgeLabel;html=1;align=center;verticalAlign=middle;resizable=0;points=[];fontColor=#7EA6E0;fontStyle=1;fontFamily=Comic Sans MS;fontSize=14;" parent="tWb0JiMxleNKAtwDJ_G4-7" vertex="1" connectable="0">
          <mxGeometry x="0.1613" y="-1" relative="1" as="geometry">
            <mxPoint x="203" y="-2" as="offset" />
          </mxGeometry>
        </mxCell>
        <mxCell id="tWb0JiMxleNKAtwDJ_G4-13" style="rounded=0;orthogonalLoop=1;jettySize=auto;html=1;fillColor=#e1d5e7;strokeColor=#9673a6;fontFamily=Comic Sans MS;fontColor=#A680B8;" parent="1" source="STHjDq64EF-UmRLRF9ZD-14" target="tWb0JiMxleNKAtwDJ_G4-15" edge="1">
          <mxGeometry relative="1" as="geometry">
            <mxPoint x="437" y="379" as="targetPoint" />
            <mxPoint x="486" y="253" as="sourcePoint" />
          </mxGeometry>
        </mxCell>
        <mxCell id="tWb0JiMxleNKAtwDJ_G4-14" value="" style="edgeLabel;html=1;align=center;verticalAlign=middle;resizable=0;points=[];fontFamily=Comic Sans MS;fontColor=#A680B8;" parent="tWb0JiMxleNKAtwDJ_G4-13" vertex="1" connectable="0">
          <mxGeometry x="-0.274" y="2" relative="1" as="geometry">
            <mxPoint x="-17" y="1" as="offset" />
          </mxGeometry>
        </mxCell>
        <mxCell id="tWb0JiMxleNKAtwDJ_G4-15" value="Insightful proof" style="ellipse;whiteSpace=wrap;html=1;fontFamily=Comic Sans MS;fillColor=#e1d5e7;strokeColor=#9673a6;" parent="1" vertex="1">
          <mxGeometry x="393.5" y="363" width="83" height="45" as="geometry" />
        </mxCell>
        <mxCell id="tWb0JiMxleNKAtwDJ_G4-16" value="redundant&lt;div&gt;proof&lt;/div&gt;" style="ellipse;whiteSpace=wrap;html=1;fontFamily=Comic Sans MS;fillColor=#dae8fc;strokeColor=#6c8ebf;" parent="1" vertex="1">
          <mxGeometry x="252.5" y="363" width="83" height="45" as="geometry" />
        </mxCell>
        <mxCell id="STHjDq64EF-UmRLRF9ZD-21" value="" style="ellipse;whiteSpace=wrap;html=1;aspect=fixed;fontFamily=Comic Sans MS;fillColor=#dae8fc;strokeColor=#6c8ebf;" parent="1" vertex="1">
          <mxGeometry x="269" y="280" width="50" height="50" as="geometry" />
        </mxCell>
        <mxCell id="7itB_NJq-pMA_0i80bLn-2" value="" style="endArrow=none;dashed=1;html=1;dashPattern=1 3;strokeWidth=2;rounded=0;fillColor=#e1d5e7;strokeColor=#9673a6;fontFamily=Comic Sans MS;fontColor=#000000;" edge="1" parent="1">
          <mxGeometry width="50" height="50" relative="1" as="geometry">
            <mxPoint x="160" y="88" as="sourcePoint" />
            <mxPoint x="207" y="88" as="targetPoint" />
          </mxGeometry>
        </mxCell>
        <mxCell id="7itB_NJq-pMA_0i80bLn-3" value="&lt;font style=&quot;font-size: 14px;&quot;&gt;Other: objectively exist but are not visited&lt;/font&gt;" style="edgeLabel;html=1;align=center;verticalAlign=middle;resizable=0;points=[];fontColor=#000000;fontStyle=1;fontFamily=Comic Sans MS;fontSize=14;" vertex="1" connectable="0" parent="7itB_NJq-pMA_0i80bLn-2">
          <mxGeometry x="0.1613" y="-1" relative="1" as="geometry">
            <mxPoint x="172" y="-1" as="offset" />
          </mxGeometry>
        </mxCell>
      </root>
    </mxGraphModel>
  </diagram>
</mxfile>
